<?xml version="1.0" standalone="no"?>
<!DOCTYPE svg PUBLIC "-//W3C//DTD SVG 20010904//EN"
 "http://www.w3.org/TR/2001/REC-SVG-20010904/DTD/svg10.dtd">
<svg version="1.0" xmlns="http://www.w3.org/2000/svg"
 width="512.000000pt" height="512.000000pt" viewBox="0 0 512.000000 512.000000"
 preserveAspectRatio="xMidYMid meet">

<g transform="translate(0.000000,512.000000) scale(0.100000,-0.100000)"
fill="#000000" stroke="none">
<path d="M2365 5114 c-27 -2 -111 -13 -185 -24 -710 -105 -1348 -511 -1752
-1115 -202 -302 -340 -661 -400 -1040 -32 -201 -32 -549 0 -750 115 -729 511
-1352 1117 -1757 302 -202 661 -340 1040 -400 201 -32 549 -32 750 0 284 45
512 117 764 243 501 248 902 649 1150 1150 126 252 198 480 243 764 32 201 32
549 0 750 -115 729 -511 1352 -1117 1757 -299 200 -662 340 -1030 398 -127 20
-459 34 -580 24z m-972 -906 c102 -22 216 -126 258 -237 73 -193 -14 -406
-201 -495 -60 -29 -73 -31 -170 -31 -94 0 -111 3 -161 28 -87 42 -143 98 -185
183 -100 201 -18 439 183 531 87 40 163 46 276 21z m2241 -1047 c242 -64 401
-220 475 -466 54 -177 54 -176 58 -987 l4 -758 -340 0 -341 0 0 628 c-1 698
-4 737 -62 852 -61 119 -158 166 -323 158 -149 -8 -243 -63 -303 -176 -65
-122 -65 -121 -69 -824 l-4 -638 -340 0 -339 0 0 1095 0 1095 325 0 325 0 0
-150 c0 -82 3 -150 8 -150 4 0 16 16 26 35 28 51 128 150 197 195 70 45 167
85 259 105 95 21 339 13 444 -14z m-2014 -1116 l0 -1095 -340 0 -340 0 0 1088
c0 599 3 1092 7 1095 3 4 156 7 340 7 l333 0 0 -1095z"/>
</g>
</svg>
